<?xml version="1.0" encoding="UTF-8" standalone="no"?>
<svg xmlns="http://www.w3.org/2000/svg" width="912" height="1168" viewBox="0 0 912 1168">
  <defs>
    <linearGradient id="bg" x1="0" y1="0" x2="0" y2="1">
      <stop offset="0%" stop-color="#0b0b0b"/>
      <stop offset="100%" stop-color="#151212"/>
    </linearGradient>
    <linearGradient id="bgGlow" x1="0" y1="0" x2="1" y2="1">
      <stop offset="0%" stop-color="#ffb95d" stop-opacity="0.12"/>
      <stop offset="100%" stop-color="#000000" stop-opacity="0.0"/>
    </linearGradient>
    <linearGradient id="ribbon" x1="0" y1="0" x2="1" y2="0">
      <stop offset="0%" stop-color="#ff8a1c"/>
      <stop offset="100%" stop-color="#d55c09"/>
    </linearGradient>
    <linearGradient id="panel" x1="0" y1="0" x2="0" y2="1">
      <stop offset="0%" stop-color="#ffffff" stop-opacity="0.98"/>
      <stop offset="100%" stop-color="#f7f2eb"/>
    </linearGradient>
    <linearGradient id="orangePanel" x1="0" y1="0" x2="1" y2="0">
      <stop offset="0%" stop-color="#ff8a1c"/>
      <stop offset="100%" stop-color="#f36a1e"/>
    </linearGradient>
  </defs>

  <rect width="912" height="1168" rx="32" ry="32" fill="url(#bg)"/>
  <rect x="16" y="16" width="880" height="1136" rx="28" ry="28" fill="none" stroke="#c39244" stroke-width="8"/>
  <rect x="72" y="72" width="768" height="202" rx="28" ry="28" fill="url(#bgGlow)" opacity="0.55"/>

  <g opacity="0.75">
    <circle cx="200" cy="116" r="22" fill="#ff8a1c"/>
    <circle cx="640" cy="92" r="14" fill="#ffffff"/>
    <circle cx="300" cy="86" r="18" fill="#d6b160"/>
    <rect x="720" y="130" width="10" height="32" rx="6" fill="#ff8a1c"/>
    <rect x="520" y="44" width="12" height="24" rx="6" fill="#ffffff"/>
  </g>

  <g id="top-banner">
    <path d="M96,228 C210,128 702,128 816,228 L816,284 C710,242 598,282 456,284 C314,282 202,238 96,284 Z" fill="url(#ribbon)" stroke="#1a120f" stroke-width="8"/>
    <path d="M96,228 L156,176 C348,110 564,110 708,176 L816,228" fill="#000" opacity="0.12"/>
    <text x="456" y="215" font-family="Arial, Helvetica, sans-serif" font-size="32" font-weight="800" fill="#1e130d" text-anchor="middle">MOHONASEN HIGH SCHOOL</text>
    <text x="456" y="258" font-family="Arial, Helvetica, sans-serif" font-size="54" font-weight="900" fill="#ffffff" text-anchor="middle" letter-spacing="2">CLASS OF 1996</text>
  </g>

  <text x="456" y="370" font-family="Arial, Helvetica, sans-serif" font-size="88" font-weight="900" fill="#ffffff" text-anchor="middle">30-YEAR REUNION</text>
  <text x="456" y="438" font-family="Georgia, serif" font-size="54" font-weight="700" fill="#ffffff" text-anchor="middle">Friday, July 31, 2026</text>

  <rect x="72" y="480" width="768" height="356" rx="42" ry="42" fill="url(#panel)" stroke="#1c1812" stroke-width="4"/>
  <rect x="72" y="480" width="768" height="76" rx="34" ry="34" fill="url(#orangePanel)" stroke="#d1610f" stroke-width="2"/>
  <text x="120" y="532" font-family="Arial, Helvetica, sans-serif" font-size="34" font-weight="800" fill="#1b120e">WHERE TO CELEBRATE:</text>
  <text x="132" y="584" font-family="Arial, Helvetica, sans-serif" font-size="44" font-weight="900" fill="#1d120d">KATIE O'BYRNES IRISH PUB</text>
  <text x="130" y="630" font-family="Arial, Helvetica, sans-serif" font-size="28" fill="#191612">121 Wall Street, State Street &amp; Erie Blvd, Schenectady, NY 12305</text>
  <text x="130" y="674" font-family="Arial, Helvetica, sans-serif" font-size="28" fill="#191612">Heavy Apps and small bites included.</text>
  <text x="130" y="716" font-family="Arial, Helvetica, sans-serif" font-size="28" fill="#191612">$30 per person. Significant others welcome.</text>
  <text x="130" y="748" font-family="Arial, Helvetica, sans-serif" font-size="24" fill="#191612">RSVP by Sunday, July 19 · Tickets available at the door (cash or Venmo)</text>
  <text x="130" y="780" font-family="Arial, Helvetica, sans-serif" font-size="28" fill="#191612">katieobyrnespub.com</text>

  <g transform="translate(90,610)">
    <circle cx="20" cy="20" r="18" fill="#ff8a1c"/>
    <path d="M20,6 L20,34" stroke="#ffffff" stroke-width="4" stroke-linecap="round"/>
    <circle cx="20" cy="26" r="8" fill="#ffffff"/>
  </g>

  <g transform="translate(760,620)">
    <circle cx="0" cy="0" r="60" fill="#ffffff" stroke="#ff8a1c" stroke-width="10"/>
    <path d="M-24,0 L0,-24 L24,0" fill="none" stroke="#ff8a1c" stroke-width="8" stroke-linecap="round"/>
    <path d="M0,-24 L0,20" fill="none" stroke="#ff8a1c" stroke-width="8" stroke-linecap="round"/>
    <text x="0" y="-6" font-family="Arial, Helvetica, sans-serif" font-size="24" font-weight="800" fill="#1a120f" text-anchor="middle">7:00 - 10:00</text>
    <text x="0" y="28" font-family="Arial, Helvetica, sans-serif" font-size="20" fill="#1a120f" text-anchor="middle">pm</text>
  </g>

  <g transform="translate(94,780)">
    <rect x="0" y="0" width="56" height="96" rx="16" fill="#ff8a1c"/>
    <path d="M0,0 Q28,-28 56,0" fill="#ffffff"/>
    <rect x="68" y="0" width="56" height="96" rx="16" fill="#ff8a1c"/>
    <path d="M68,0 Q96,-28 124,0" fill="#ffffff"/>
    <path d="M38,72 Q72,100 104,72" stroke="#ffffff" stroke-width="10" fill="none" stroke-linecap="round"/>
  </g>

  <text x="96" y="900" font-family="Arial, Helvetica, sans-serif" font-size="38" font-weight="900" fill="#ff8a1c">SUGGESTED ACCOMMODATIONS:</text>
  <text x="120" y="948" font-family="Arial, Helvetica, sans-serif" font-size="28" fill="#ffffff">Hampton Inn Schenectady</text>
  <text x="120" y="988" font-family="Arial, Helvetica, sans-serif" font-size="24" fill="#ffffff">Address: 450 State St, Schenectady, NY 12305</text>
  <text x="120" y="1018" font-family="Arial, Helvetica, sans-serif" font-size="24" fill="#ffffff">Phone: (518) 377-4500</text>
  <text x="120" y="1048" font-family="Arial, Helvetica, sans-serif" font-size="24" fill="#ffffff">Website: https://www.hilton.com/en/hotels/albsyhx-hampton-schenectady-downtown</text>

  <g transform="translate(548,900)">
    <rect x="0" y="0" width="304" height="264" rx="24" ry="24" fill="#ffffff" stroke="#1b1815" stroke-width="6"/>
    <image x="8" y="8" width="288" height="248" href="reunion-qr.png" preserveAspectRatio="xMidYMid meet" />
    <text x="152" y="264" font-family="Arial, Helvetica, sans-serif" font-size="18" fill="#1a120f" text-anchor="middle">Registration &amp; Payment via QR Code</text>
    <text x="152" y="288" font-family="Arial, Helvetica, sans-serif" font-size="22" font-weight="700" fill="#1a120f" text-anchor="middle">$30 Per Person</text>
  </g>

  <text x="96" y="1096" font-family="Arial, Helvetica, sans-serif" font-size="36" font-weight="900" fill="#ff8a1c">QUESTIONS?</text>
  <text x="96" y="1142" font-family="Arial, Helvetica, sans-serif" font-size="28" fill="#ffffff">Reach out to:</text>
  <g transform="translate(0,1146)">
    <g transform="translate(0,42)">
      <text x="36" y="0" font-family="Arial, Helvetica, sans-serif" font-size="26" fill="#ffffff">✉️  mohonclass96@gmail.com</text>
    </g>
    <g transform="translate(0,72)">
      <text x="36" y="0" font-family="Arial, Helvetica, sans-serif" font-size="26" fill="#ffffff">📞  518.241.3336</text>
    </g>
  </g>
</svg>
